<?xml version="1.0" standalone="no"?><!DOCTYPE svg PUBLIC "-//W3C//DTD SVG 1.1//EN" "http://www.w3.org/Graphics/SVG/1.1/DTD/svg11.dtd"><svg t="1758809461129" class="icon" viewBox="0 0 1024 1024" version="1.1" xmlns="http://www.w3.org/2000/svg" p-id="7797" xmlns:xlink="http://www.w3.org/1999/xlink" width="64" height="64"><path d="M128 213.333333h768v597.333334H128V213.333333z" fill="#000000" p-id="7798"></path><path d="M85.333333 213.333333a42.666667 42.666667 0 0 1 42.666667-42.666666h768a42.666667 42.666667 0 0 1 42.666667 42.666666v597.333334a42.666667 42.666667 0 0 1-42.666667 42.666666H128a42.666667 42.666667 0 0 1-42.666667-42.666666V213.333333z m85.333334 42.666667v512h682.666666V256H170.666667z" fill="#000000" p-id="7799"></path><path d="M77.013333 156.501333l96 64 0.917334 0.64L512 459.776l337.557333-238.293333L934.4 157.866667l51.2 68.266666-85.333333 64a40.746667 40.746667 0 0 1-1.002667 0.725334l-362.666667 256a42.666667 42.666667 0 0 1-49.194666 0L125.184 291.178667l-95.509333-63.68 47.317333-70.997334z" fill="#FFFFFF" p-id="7800"></path></svg>