<svg t="1692956569536" class="icon" viewBox="0 0 1024 1024" version="1.1" xmlns="http://www.w3.org/2000/svg" p-id="24105" width="128" height="128"><path d="M775.14 889.22H248.86c-39.51 0-71.65-32.14-71.65-71.65V206.03c0-39.51 32.14-71.65 71.65-71.65h526.27c39.51 0 71.65 32.14 71.65 71.65v611.54c0.01 39.51-32.14 71.65-71.64 71.65zM248.86 184.38c-11.94 0-21.65 9.71-21.65 21.65v611.54c0 11.94 9.71 21.65 21.65 21.65h526.27c11.94 0 21.65-9.71 21.65-21.65V206.03c0-11.94-9.71-21.65-21.65-21.65H248.86z" fill="#000000" p-id="24106"></path><path d="M677 344.82H347c-13.81 0-25-11.19-25-25s11.19-25 25-25h330c13.81 0 25 11.19 25 25s-11.19 25-25 25zM677 472.85H347c-13.81 0-25-11.19-25-25s11.19-25 25-25h330c13.81 0 25 11.19 25 25s-11.19 25-25 25zM677 600.94H347c-13.81 0-25-11.19-25-25s11.19-25 25-25h330c13.81 0 25 11.19 25 25 0 13.8-11.19 25-25 25zM677 728.77H347c-13.81 0-25-11.19-25-25s11.19-25 25-25h330c13.81 0 25 11.19 25 25s-11.19 25-25 25z" fill="#000000" p-id="24107"></path></svg>