<?xml version="1.0" standalone="no"?><!DOCTYPE svg PUBLIC "-//W3C//DTD SVG 1.1//EN" "http://www.w3.org/Graphics/SVG/1.1/DTD/svg11.dtd"><svg t="1758809278737" class="icon" viewBox="0 0 1024 1024" version="1.1" xmlns="http://www.w3.org/2000/svg" p-id="6750" xmlns:xlink="http://www.w3.org/1999/xlink" width="64" height="64"><path d="M170.666667 85.333333h682.666666a42.666667 42.666667 0 0 1 42.666667 42.666667v768a42.666667 42.666667 0 0 1-42.666667 42.666667H170.666667a42.666667 42.666667 0 0 1-42.666667-42.666667V128a42.666667 42.666667 0 0 1 42.666667-42.666667z" fill="#000000" p-id="6751"></path><path d="M277.333333 234.666667h469.333334v192H277.333333zM277.333333 533.333333h85.333334v85.333334h-85.333334zM277.333333 704h85.333334v85.333333h-85.333334zM469.333333 533.333333h85.333334v85.333334h-85.333334zM661.333333 533.333333h85.333334v256h-85.333334zM469.333333 704h85.333334v85.333333h-85.333334z" fill="#FFFFFF" p-id="6752"></path></svg>