<svg t="1765379363157" class="icon" viewBox="0 0 1063 1024" version="1.1" xmlns="http://www.w3.org/2000/svg" p-id="43032" width="256" height="256"><path d="M432.741243 623.656497h205.957062v203.642938H432.741243V623.656497zM205.957062 395.715254h201.328814v203.642938H205.957062V395.715254z m226.784181 0h205.957062v203.642938H432.741243V395.715254z m229.098305-227.941243h203.642938v203.642938H661.839548V167.774011z m0 227.941243h203.642938v203.642938H661.839548V395.715254zM432.741243 167.774011h205.957062v203.642938H432.741243V167.774011z m229.098305 455.882486h203.642938v203.642938H661.839548V623.656497z m-455.882486 0h201.328814v203.642938H205.957062V623.656497z m0-455.882486h201.328814v203.642938H205.957062V167.774011z" fill="#333333" p-id="43033"></path><path d="M1020.528814 992.759322h-960.361582V38.183051h959.204519v954.576271z m-108.763842-871.267797h-752.090396v747.462147h752.090396V121.491525z" fill="#333333" p-id="43034"></path></svg>