<?xml version="1.0" standalone="no"?><!DOCTYPE svg PUBLIC "-//W3C//DTD SVG 1.1//EN" "http://www.w3.org/Graphics/SVG/1.1/DTD/svg11.dtd"><svg t="1758809404206" class="icon" viewBox="0 0 1024 1024" version="1.1" xmlns="http://www.w3.org/2000/svg" p-id="7623" xmlns:xlink="http://www.w3.org/1999/xlink" width="64" height="64"><path d="M512 746.666667c129.6 0 234.666667-105.066667 234.666667-234.666667s-105.066667-234.666667-234.666667-234.666667-234.666667 105.066667-234.666667 234.666667 105.066667 234.666667 234.666667 234.666667z" fill="#000000" p-id="7624"></path><path d="M234.666667 512c0-153.173333 124.16-277.333333 277.333333-277.333333s277.333333 124.16 277.333333 277.333333-124.16 277.333333-277.333333 277.333333-277.333333-124.16-277.333333-277.333333z m277.333333-192a192 192 0 1 0 0 384 192 192 0 0 0 0-384zM554.666667 85.333333v128h-85.333334V85.333333h85.333334zM858.496 234.666667L768 325.162667l-60.352-60.330667 90.517333-90.517333L858.496 234.666667zM234.666667 174.336l90.517333 90.496-60.352 60.352L174.336 234.666667 234.666667 174.336zM798.165333 858.496L707.648 768 768 707.626667l90.496 90.517333-60.330667 60.330667zM174.336 798.165333l90.496-90.496L325.184 768 234.666667 858.517333l-60.330667-60.352zM554.666667 810.666667v128h-85.333334v-128h85.333334zM945.792 554.666667h-128v-85.333334h128v85.333334zM213.333333 554.666667H85.333333v-85.333334h128v85.333334z" fill="#000000" p-id="7625"></path><path d="M405.333333 469.333333h213.333334v85.333334H405.333333v-85.333334z" fill="#FFFFFF" p-id="7626"></path><path d="M554.666667 405.333333v213.333334h-85.333334V405.333333h85.333334z" fill="#FFFFFF" p-id="7627"></path></svg>