<?xml version="1.0" standalone="no"?><!DOCTYPE svg PUBLIC "-//W3C//DTD SVG 1.1//EN" "http://www.w3.org/Graphics/SVG/1.1/DTD/svg11.dtd"><svg t="1758809303501" class="icon" viewBox="0 0 1024 1024" version="1.1" xmlns="http://www.w3.org/2000/svg" p-id="6924" xmlns:xlink="http://www.w3.org/1999/xlink" width="64" height="64"><path d="M955.733333 260.266667c-14.933333-6.4-34.133333-4.266667-44.8 6.4L810.666667 354.133333V213.333333c0-23.466667-19.2-42.666667-42.666667-42.666666H85.333333c-23.466667 0-42.666667 19.2-42.666666 42.666666v597.333334c0 23.466667 19.2 42.666667 42.666666 42.666666h682.666667c23.466667 0 42.666667-19.2 42.666667-42.666666v-140.8l100.266666 87.466666c12.8 10.666667 29.866667 12.8 44.8 6.4 14.933333-6.4 25.6-21.333333 25.6-38.4V298.666667c0-17.066667-10.666667-32-25.6-38.4zM518.4 544l-128 106.666667-55.466667-66.133334 89.6-74.666666-89.6-74.666667 55.466667-66.133333 128 106.666666c10.666667 8.533333 14.933333 19.2 14.933333 32 0 17.066667-6.4 29.866667-14.933333 36.266667z" fill="#000000" p-id="6925"></path></svg>