<?xml version="1.0" standalone="no"?><!DOCTYPE svg PUBLIC "-//W3C//DTD SVG 1.1//EN" "http://www.w3.org/Graphics/SVG/1.1/DTD/svg11.dtd"><svg t="1758809371685" class="icon" viewBox="0 0 1024 1024" version="1.1" xmlns="http://www.w3.org/2000/svg" p-id="7103" xmlns:xlink="http://www.w3.org/1999/xlink" width="64" height="64"><path d="M512 896c212.074667 0 384-171.925333 384-384S724.074667 128 512 128 128 299.925333 128 512s171.925333 384 384 384z" fill="#000000" p-id="7104"></path><path d="M85.333333 512C85.333333 276.352 276.352 85.333333 512 85.333333s426.666667 191.018667 426.666667 426.666667-191.018667 426.666667-426.666667 426.666667S85.333333 747.648 85.333333 512zM512 170.666667C323.477333 170.666667 170.666667 323.477333 170.666667 512s152.810667 341.333333 341.333333 341.333333 341.333333-152.810667 341.333333-341.333333S700.522667 170.666667 512 170.666667z" fill="#000000" p-id="7105"></path><path d="M426.666667 512v-149.333333l117.333333 74.666666L661.333333 512l-117.333333 74.666667L426.666667 661.333333v-149.333333z" fill="#FFFFFF" p-id="7106"></path><path d="M406.144 325.269333a42.666667 42.666667 0 0 1 43.434667 1.408l234.666666 149.333334a42.666667 42.666667 0 0 1 0 71.978666l-234.666666 149.333334A42.666667 42.666667 0 0 1 384 661.333333V362.666667a42.666667 42.666667 0 0 1 22.144-37.397334zM469.333333 440.384v143.232L581.866667 512 469.333333 440.384z" fill="#FFFFFF" p-id="7107"></path></svg>