<?xml version="1.0" standalone="no"?><!DOCTYPE svg PUBLIC "-//W3C//DTD SVG 1.1//EN" "http://www.w3.org/Graphics/SVG/1.1/DTD/svg11.dtd"><svg t="1758809525126" class="icon" viewBox="0 0 1024 1024" version="1.1" xmlns="http://www.w3.org/2000/svg" p-id="13486" xmlns:xlink="http://www.w3.org/1999/xlink" width="64" height="64"><path d="M554.666667 170.666667l-234.666667 192H170.666667v298.666666h149.333333l234.666667 192V170.666667z" fill="#000000" p-id="13487"></path><path d="M572.949333 132.117333A42.666667 42.666667 0 0 1 597.333333 170.666667v682.666666a42.666667 42.666667 0 0 1-69.696 33.024L304.789333 704H170.666667a42.666667 42.666667 0 0 1-42.666667-42.666667V362.666667a42.666667 42.666667 0 0 1 42.666667-42.666667h134.101333l222.869333-182.357333a42.666667 42.666667 0 0 1 45.290667-5.546667zM512 260.693333l-164.970667 134.997334A42.666667 42.666667 0 0 1 320 405.333333h-106.666667v213.333334h106.666667a42.666667 42.666667 0 0 1 27.029333 9.642666L512 763.306667V260.693333zM719.402667 712.469333A234.538667 234.538667 0 0 0 832 512c0-84.906667-45.077333-159.253333-112.597333-200.448l-57.536 65.749333a149.333333 149.333333 0 0 1 0 269.397334l57.536 65.770666z" fill="#000000" p-id="13488"></path></svg>