<svg data-v-d98ee2e4="" width="32" height="287" viewBox="0 0 32 287" fill="none" xmlns="http://www.w3.org/2000/svg" class="line w-[29px] z-1 relative"><path d="M5 275h22v11.5a.5.5 0 0 1-.5.5h-21a.5.5 0 0 1-.5-.5z" fill="url(#a)"></path><g filter="url(#b)"><path d="M0 245h32v25a5 5 0 0 1-5 5H5a5 5 0 0 1-5-5z" fill="#2F2F33"></path></g><path d="M27 225a5 5 0 0 1 5 5v15H0v-15a5 5 0 0 1 5-5 2 2 0 0 0 2-2v-12h18v12a2 2 0 0 0 2 2" fill="#FF6900"></path><path fill="url(#c)" d="M10.5 0h11v211h-11z"></path><defs><linearGradient id="a" x1="5" y1="282" x2="27" y2="282" gradientUnits="userSpaceOnUse"><stop stop-color="#303135"></stop><stop offset="1" stop-color="#1C1C1D"></stop></linearGradient><linearGradient id="c" x1="16" y1="0" x2="16" y2="211" gradientUnits="userSpaceOnUse"><stop stop-color="#1D1D20"></stop><stop offset=".212" stop-color="#303135"></stop><stop offset=".982" stop-color="#303135"></stop><stop offset="1" stop-color="#2D2E33"></stop></linearGradient><filter id="b" x="0" y="245" width="32" height="32" filterUnits="userSpaceOnUse" color-interpolation-filters="sRGB"><feFlood flood-opacity="0" result="BackgroundImageFix"></feFlood><feColorMatrix in="SourceAlpha" type="matrix" values="0 0 0 0 0 0 0 0 0 0 0 0 0 0 0 0 0 0 127 0" result="hardAlpha"></feColorMatrix><feMorphology radius="2" operator="erode" in="SourceAlpha" result="effect1_dropShadow_2933_56746"></feMorphology><feOffset dy="2"></feOffset><feGaussianBlur stdDeviation="1"></feGaussianBlur><feComposite in2="hardAlpha" operator="out"></feComposite><feColorMatrix type="matrix" values="0 0 0 0 0 0 0 0 0 0 0 0 0 0 0 0 0 0 0.5 0"></feColorMatrix><feBlend mode="normal" in2="BackgroundImageFix" result="effect1_dropShadow_2933_56746"></feBlend><feBlend mode="normal" in="SourceGraphic" in2="effect1_dropShadow_2933_56746" result="shape"></feBlend></filter></defs></svg>